<svg width="45" height="45" viewBox="0 0 45 45" fill="none" xmlns="http://www.w3.org/2000/svg">
<g clip-path="url(#clip0_0_14)">
<path d="M38.0944 8.42248C35.2256 7.12873 32.1506 6.17248 28.935 5.62873C28.9063 5.62323 28.8767 5.62678 28.8502 5.63887C28.8236 5.65096 28.8015 5.67101 28.7869 5.69623C28.3931 6.38811 27.9544 7.28998 27.6469 8.00248C24.2364 7.49292 20.7692 7.49292 17.3587 8.00248C17.0162 7.21284 16.63 6.4429 16.2019 5.69623C16.1873 5.6707 16.1654 5.6502 16.1389 5.63747C16.1125 5.62474 16.0827 5.62038 16.0537 5.62498C12.84 6.16873 9.76499 7.12498 6.89436 8.42061C6.86966 8.43096 6.84873 8.44863 6.83436 8.47123C0.999361 17.0494 -0.600014 25.4156 0.185611 33.6769C0.187797 33.6971 0.194077 33.7167 0.20407 33.7344C0.214062 33.7521 0.227558 33.7676 0.243736 33.78C3.64947 36.2595 7.44812 38.1484 11.4806 39.3675C11.5087 39.3761 11.5388 39.3761 11.5669 39.3674C11.595 39.3587 11.6198 39.3417 11.6381 39.3187C12.5044 38.1562 13.2769 36.9281 13.9369 35.6381C13.9762 35.5631 13.9387 35.4731 13.86 35.4431C12.6487 34.987 11.4751 34.4365 10.35 33.7969C10.3298 33.7853 10.3127 33.7689 10.3004 33.7492C10.2881 33.7294 10.2808 33.7069 10.2794 33.6837C10.2779 33.6605 10.2822 33.6372 10.2919 33.6161C10.3016 33.5949 10.3164 33.5765 10.335 33.5625C10.5712 33.3881 10.8075 33.2062 11.0325 33.0244C11.0527 33.008 11.0771 32.9976 11.103 32.9943C11.1288 32.991 11.155 32.9949 11.1787 33.0056C18.5419 36.3131 26.5162 36.3131 33.7931 33.0056C33.8169 32.9943 33.8434 32.9898 33.8696 32.9928C33.8958 32.9958 33.9206 33.0061 33.9412 33.0225C34.1662 33.2062 34.4006 33.3881 34.6387 33.5625C34.6575 33.5762 34.6726 33.5944 34.6826 33.6154C34.6926 33.6363 34.6972 33.6595 34.6961 33.6827C34.695 33.7059 34.6882 33.7285 34.6762 33.7484C34.6642 33.7683 34.6475 33.785 34.6275 33.7969C33.5062 34.4419 32.34 34.9875 31.1156 35.4412C31.0968 35.4481 31.0797 35.4588 31.0654 35.4728C31.051 35.4868 31.0399 35.5036 31.0326 35.5223C31.0253 35.5409 31.0221 35.5609 31.0232 35.5808C31.0242 35.6008 31.0295 35.6203 31.0387 35.6381C31.7137 36.9262 32.4862 38.1525 33.3356 39.3169C33.3533 39.3407 33.3779 39.3586 33.4061 39.368C33.4342 39.3774 33.4646 39.3779 33.4931 39.3694C37.5325 38.1537 41.3374 36.2639 44.7469 33.78C44.7635 33.7683 44.7775 33.7533 44.7878 33.7358C44.7981 33.7184 44.8046 33.6989 44.8069 33.6787C45.7444 24.1275 43.2356 15.8287 38.1525 8.47498C38.14 8.45108 38.1194 8.43245 38.0944 8.42248ZM15.0375 28.6462C12.8212 28.6462 10.9931 26.6419 10.9931 24.1837C10.9931 21.7237 12.7856 19.7212 15.0375 19.7212C17.3062 19.7212 19.1175 21.7406 19.0819 24.1837C19.0819 26.6437 17.2894 28.6462 15.0375 28.6462V28.6462ZM29.9906 28.6462C27.7725 28.6462 25.9462 26.6419 25.9462 24.1837C25.9462 21.7237 27.7369 19.7212 29.9906 19.7212C32.2594 19.7212 34.0706 21.7406 34.035 24.1837C34.035 26.6437 32.2612 28.6462 29.9906 28.6462V28.6462Z" fill="white"/>
</g>
<defs>
<clipPath id="clip0_0_14">
<rect width="45" height="45" fill="white"/>
</clipPath>
</defs>
</svg>
