<svg width="45" height="45" viewBox="0 0 45 45" fill="none" xmlns="http://www.w3.org/2000/svg">
<path d="M44.3307 9.25693C42.765 9.95068 41.0832 10.4194 39.315 10.6313C41.1394 9.53966 42.5043 7.82155 43.155 5.79755C41.441 6.81566 39.5651 7.53229 37.6088 7.9163C36.2932 6.51167 34.5508 5.58066 32.6519 5.26782C30.753 4.95497 28.804 5.27779 27.1073 6.18615C25.4107 7.09452 24.0615 8.53761 23.2691 10.2914C22.4766 12.0451 22.2854 14.0115 22.725 15.8851C19.2519 15.7107 15.8543 14.808 12.7527 13.2355C9.65106 11.663 6.91472 9.45598 4.72127 6.75755C3.97127 8.0513 3.54002 9.5513 3.54002 11.1488C3.53919 12.5869 3.89333 14.003 4.57104 15.2714C5.24876 16.5398 6.22908 17.6214 7.42502 18.4201C6.03804 18.3759 4.68166 18.0011 3.46877 17.3269V17.4394C3.46863 19.4564 4.16633 21.4114 5.44349 22.9725C6.72065 24.5337 8.49859 25.6049 10.4756 26.0044C9.18899 26.3526 7.84003 26.4039 6.53065 26.1544C7.08845 27.89 8.17501 29.4076 9.63821 30.4949C11.1014 31.5822 12.868 32.1848 14.6906 32.2182C11.5966 34.6471 7.77544 35.9646 3.8419 35.9588C3.14511 35.959 2.44892 35.9183 1.7569 35.8369C5.74967 38.4041 10.3975 39.7666 15.1444 39.7613C31.2131 39.7613 39.9975 26.4526 39.9975 14.9101C39.9975 14.5351 39.9882 14.1563 39.9713 13.7813C41.6799 12.5456 43.1549 11.0155 44.3269 9.26255L44.3307 9.25693V9.25693Z" fill="white"/>
</svg>
